<?xml version="1.0" encoding="UTF-8" standalone="no"?>
<svg
   xmlns:dc="http://purl.org/dc/elements/1.1/"
   xmlns:cc="http://creativecommons.org/ns#"
   xmlns:rdf="http://www.w3.org/1999/02/22-rdf-syntax-ns#"
   xmlns:svg="http://www.w3.org/2000/svg"
   xmlns="http://www.w3.org/2000/svg"
   xmlns:xlink="http://www.w3.org/1999/xlink"
   xmlns:sodipodi="http://sodipodi.sourceforge.net/DTD/sodipodi-0.dtd"
   xmlns:inkscape="http://www.inkscape.org/namespaces/inkscape"
   width="352px"
   height="76px"
   viewBox="0 0 352 76"
   version="1.1"
   id="svg132"
   sodipodi:docname="Logo_eTranslation_v6b_1.svg"
   inkscape:version="0.92.2 (5c3e80d, 2017-08-06)">
  <metadata
     id="metadata136">
    <rdf:RDF>
      <cc:Work
         rdf:about="">
        <dc:format>image/svg+xml</dc:format>
        <dc:type
           rdf:resource="http://purl.org/dc/dcmitype/StillImage" />
        <dc:title>Group 11</dc:title>
      </cc:Work>
    </rdf:RDF>
  </metadata>
  <sodipodi:namedview
     pagecolor="#ffffff"
     bordercolor="#666666"
     borderopacity="1"
     objecttolerance="10"
     gridtolerance="10"
     guidetolerance="10"
     inkscape:pageopacity="0"
     inkscape:pageshadow="2"
     inkscape:window-width="1600"
     inkscape:window-height="838"
     id="namedview134"
     showgrid="false"
     inkscape:zoom="1.6136364"
     inkscape:cx="170.43805"
     inkscape:cy="112.9698"
     inkscape:window-x="-8"
     inkscape:window-y="-8"
     inkscape:window-maximized="1"
     inkscape:current-layer="Group-11"
     showguides="true"
     inkscape:guide-bbox="true" />
  <!-- Generator: Sketch 41.1 (35376) - http://www.bohemiancoding.com/sketch -->
  <title
     id="title76">Group 11</title>
  <desc
     id="desc78">Created with Sketch.</desc>
  <defs
     id="defs81">
    <polygon
       id="path-1"
       points="44.9696604 40.1062793 44.9696604 0.291603261 22.6245272 0.291603261 0.279394011 0.291603261 0.279394011 40.1062793" />
	   <style type="text/css">
		  <![CDATA[
			@font-face {
			  font-family: 'EC Square Sans Pro';
			  src: url('../fonts/ECSquareSansPro.eot');
			  src: url('../fonts/ECSquareSansPro.eot?#iefix') format('embedded-opentype'),
				  url('../fonts/ECSquareSansPro.woff2') format('woff2'),
				  url('../fonts/ECSquareSansPro.woff') format('woff');
			  font-weight: normal;
			  font-style: normal;
			}
			@font-face {
				font-family: 'EC Square Sans Pro';
				src: url('../fonts/ECSquareSansProMedium.eot');
				src: url('../fonts/ECSquareSansProMedium.eot?#iefix') format('embedded-opentype'),
					url('../fonts/ECSquareSansProMedium.woff2') format('woff2'),
					url('../fonts/ECSquareSansProMedium.woff') format('woff');
				font-weight: 500;
				font-style: normal;
			}
		  ]]>
    </style>
  </defs>
  <g
     id="Symbols"
     stroke="none"
     stroke-width="1"
     fill="none"
     fill-rule="evenodd">
    <g
       id="Group-11">
      <g
         id="logo_ce-en-quadri">
        <path
           d="M0,27.0668924 C0,27.0668924 43.6082395,21.4253413 44.8402393,21.2237185 C46.7271209,20.9160076 48.403485,20.5560859 49.9670916,20.1234022 C53.4942327,19.1575011 56.7408689,17.6828217 59.61535,15.7404663 C62.3709637,13.8919793 64.9343899,11.203675 67.4755979,8.2543163 C69.0914173,6.37750217 70.7883332,3.93081196 72.3713808,1.56910326 L72.3713808,0.429351087 C70.4933865,3.20930217 68.6431649,5.60378152 66.7407305,7.71887717 C64.2195189,10.5249337 61.5744409,12.8211011 58.8782609,14.5429489 C56.0959853,16.3347815 52.9643284,17.6722685 49.5693856,18.5193065 C48.0479936,18.9025565 46.4188432,19.2130446 44.5880626,19.4679891 C43.3805028,19.6379522 42.1362829,19.7679239 40.9337222,19.8951185 C40.4532534,19.945663 0,24.2358413 0,24.2358413 L0,27.0668924"
           id="Fill-1"
           fill="#B4B5B4" />
        <path
           d="M58.4805549,19.7557043 C55.7510476,21.3259185 52.5982833,22.4740022 49.1105796,23.169962 C47.6208485,23.4704522 45.9978081,23.7148435 44.1464756,23.9170217 C43.0594496,24.0347739 41.9635363,24.1297533 40.8665121,24.2241772 C40.2743968,24.2758326 39.6828369,24.3269326 39.0929434,24.3813652 C25.7292445,25.579438 12.4338667,26.8536054 0,28.0611207 L0,30.8893946 C12.5321823,29.3780565 25.9197657,27.7778489 39.2784655,26.2659554 C39.8728026,26.1965261 40.4671398,26.1304293 41.0620324,26.0654435 C42.1562793,25.9449141 43.2521926,25.8243848 44.3514386,25.6794163 C46.2522066,25.4266935 47.9157952,25.1356457 49.4355209,24.7912761 C53.0587558,23.9808967 56.3326093,22.7022859 59.1604322,20.9898804 C61.9715914,19.303025 64.4561429,16.9407609 67.1267719,14.0519446 C68.7898051,12.2545576 70.6400267,9.71733152 72.3713808,7.33285 L72.3713808,6.29585326 C70.3323044,9.06191848 68.3965427,11.386413 66.4813329,13.3682043 C63.8734703,16.0698391 61.181734,18.2177054 58.4805549,19.7557043"
           id="Fill-2"
           fill="#B4B5B4" />
        <path
           d="M66.1125106,19.0630772 C63.4513243,21.5031022 60.6734924,23.4221293 57.8545568,24.7679478 C55.0983876,26.0976587 52.0139444,27.0302337 48.4240368,27.6206609 C46.9426376,27.8656076 45.3318172,28.066675 43.5021475,28.2333054 L0,31.8047511 L0,34.6274707 L38.6696865,30.5250293 L43.6732277,29.9984772 C45.5573321,29.7813022 47.2014797,29.5369109 48.6973208,29.2519728 C52.4155386,28.5504587 55.6049628,27.5017978 58.4466721,26.0476696 C61.3517033,24.5785446 64.2545126,22.1346315 66.9529144,19.5468609 C68.7642541,17.8111272 70.5078283,15.5705033 72.3713808,13.2199033 L72.3713808,12.2789967 C70.2189916,14.9539707 68.163807,17.1840413 66.1125106,19.0630772"
           id="Fill-3"
           fill="#B4B5B4" />
        <path
           d="M55.5927428,33.7198902 C53.0604221,35.1368043 51.1668751,35.9532935 47.5503057,36.3304337 C45.3640336,36.5653826 43.1177724,36.6775804 40.9442759,36.7858902 C39.8922436,36.8381011 38.8391003,36.8908674 37.7887344,36.9569641 C31.2165874,37.332438 24.7627523,37.7484587 18.1783853,38.1778098 L0,39.4025435 L0,42.2241522 L18.3594637,40.5395185 C24.2922817,40.007412 31.1865928,39.394212 37.9164891,38.844887 L42.8089393,38.4660804 C44.7185946,38.3194457 46.2849785,38.1639239 47.7358277,37.9745207 C51.4573782,37.4940696 54.6368043,36.7425663 57.453518,35.6777978 C60.4863039,34.5436 63.3463432,32.7828717 66.2108262,30.7127663 C68.7936933,28.8465054 72.3674926,25.1661946 72.3713808,25.1178717 L72.3713808,24.1208663 C70.0345804,26.4003707 68.6892677,27.6800924 66.1319515,29.3652815 C63.0752811,31.379288 57.8634441,32.4496109 55.5927428,33.7198902"
           id="Fill-4"
           fill="#B4B5B4" />
        <path
           d="M56.5175759,39.0837239 C53.7736267,39.8879935 50.6841844,40.4323196 47.0742805,40.748362 C45.6117667,40.8750011 44.0342737,40.9722022 42.2512622,41.0438533 L37.3854738,41.2571402 C25.2948785,41.8192402 13.2631614,42.4468815 0,43.1489511 L0,45.9638946 C12.6688243,44.9835522 25.0849164,44.0293152 37.4948985,43.1461739 L42.3468005,42.8151348 C44.2192403,42.6923837 45.7717378,42.5585239 47.2325852,42.3941152 C50.9335838,41.9803163 54.0991235,41.3415663 56.9086164,40.4423174 C60.0224988,39.4564207 63.056951,38.0261761 65.9286549,36.1932413 C68.0499386,34.8429793 70.1706669,33.2333293 72.3713808,31.3126359 L72.3713808,31.2632022 C69.946263,33.3333076 67.6350135,33.7920967 65.3315404,35.1829054 C62.5114939,36.8914228 59.5459181,38.2039152 56.5175759,39.0837239"
           id="Fill-5"
           fill="#B4B5B4" />
        <path
           d="M56.0693235,43.7599293 C53.3048225,44.4059 50.3098075,44.8219207 46.6410253,45.0674228 C45.2257253,45.1624022 43.7054441,45.2334978 41.8530007,45.2907076 L37.0338706,45.462337 C24.891618,45.9211261 12.579396,46.4493446 0,46.9947815 L0,49.8086141 C12.498855,48.9565772 24.7605305,48.1267576 37.1288535,47.3524815 L41.9368745,47.0642109 C43.8220897,46.957012 45.3584791,46.8470359 46.769891,46.7187304 C50.5064387,46.3738054 53.5636646,45.8716924 56.3903766,45.1396293 C59.5620263,44.3225848 62.6448032,43.1250674 65.554278,41.5804033 C67.8033165,40.3878848 70.0468004,38.9543076 72.3713808,37.2285717 L72.3713808,36.0255 C69.8590565,37.8401054 67.448936,39.3192283 65.0360382,40.5250772 C62.1798871,41.9553217 59.1637649,43.042863 56.0693235,43.7599293"
           id="Fill-6"
           fill="#B4B5B4" />
        <path
           d="M55.6577311,48.3450435 C52.8843428,48.8532663 49.8971043,49.1770848 46.2560948,49.3653772 C44.8863421,49.435362 43.4204956,49.4859065 41.5030639,49.5292304 L0,50.6539859 L0,53.4644859 L36.8039121,51.5437924 L41.5713849,51.3021783 C43.4321601,51.2144196 44.9541076,51.1244391 46.3616313,51.0155739 C50.0526317,50.733413 53.0893058,50.3279457 55.9165733,49.7364076 C59.1265494,49.0704413 62.2415427,48.0973196 65.1754575,46.8470359 C67.5383643,45.845587 69.9062702,44.623075 72.3713808,43.1367315 L72.3713808,42.0069772 C69.7368564,43.5388663 67.2328639,44.7691543 64.7460906,45.7522739 C61.8521685,46.9025793 58.7949426,47.7740565 55.6577311,48.3450435"
           id="Fill-7"
           fill="#B4B5B4" />
        <path
           d="M55.3316788,52.9495978 C50.2392647,53.6283391 44.9963222,53.7066554 39.9261263,53.7821946 C38.7641139,53.7988576 37.6015459,53.8166315 36.4411998,53.8405152 L0,54.4975946 L0,57.304762 L36.5039663,55.7317707 C37.6615351,55.6795598 38.8207703,55.6334587 39.980561,55.5868022 C45.086306,55.3824022 50.366464,55.1718924 55.5277546,54.3520707 C58.795498,53.8371826 61.9399304,53.0751261 64.8732898,52.0886739 C67.3034067,51.2755174 69.8212856,50.222413 72.3713808,48.9776837 L72.3713808,47.9001402 C69.691309,49.1487576 67.0556737,50.1857543 64.5255748,50.9628076 C61.6255427,51.8581685 58.5327677,52.526912 55.3316788,52.9495978"
           id="Fill-8"
           fill="#B4B5B4" />
        <path
           d="M55.0422866,57.5824793 C50.2703702,57.9762826 45.3873628,57.976838 40.6643264,57.976838 C39.1951472,57.976838 37.7259679,57.9773935 36.2562332,57.989613 C24.1845234,58.0423793 12.2077964,58.1406913 0,58.2473348 L0,61.0550576 C11.6273456,60.6606989 23.9623413,60.2480109 36.2973369,59.8819793 C37.7615171,59.8331011 39.2262527,59.7964424 40.6926546,59.7581174 C45.4412419,59.6392543 50.3514667,59.5142815 55.1722632,58.9932837 C58.5405441,58.6316957 61.6044354,58.1023663 64.5400167,57.3758576 C67.1006655,56.7471054 69.7301909,55.9078435 72.3713808,54.8986185 L72.3713808,53.8671761 C69.6452062,54.8458522 66.9284744,55.6445674 64.2828409,56.2261076 C61.3755879,56.8676348 58.3522447,57.3114272 55.0422866,57.5824793"
           id="Fill-9"
           fill="#B4B5B4" />
        <path
           d="M54.8578755,62.150375 C52.869901,62.2292467 50.7175117,62.2664609 48.2757303,62.2664609 C47.353119,62.2664609 46.4299523,62.2609065 45.5101184,62.2531304 L36.1173694,62.1387109 C29.7085263,62.0909435 23.3241231,62.0803902 17.3346487,62.0748359 L0,62.0914989 L0,64.8981109 L17.3757524,64.4432098 C23.3435641,64.296575 29.7468527,64.1454967 36.135144,64.0294109 L45.5195611,63.9061043 C48.0940964,63.8655576 51.491261,63.7900185 54.9323065,63.5639565 C58.3044756,63.3451152 61.373366,63.0096326 64.3145018,62.5397348 C66.9612463,62.1164935 69.6657581,61.5466174 72.3713808,60.8573228 L72.3713808,59.8608728 C69.5918825,60.5012891 66.8290479,61.0134 64.1484207,61.3722109 C61.2239486,61.7643478 58.1850527,62.0181815 54.8578755,62.150375"
           id="Fill-10"
           fill="#B4B5B4" />
        <path
           d="M45.4006937,66.5638598 L36.0401611,66.4638815 C24.0995387,66.2955848 12.16947,66.0772989 0,65.8501261 L0,68.6589598 C11.6162365,68.5817543 23.9190158,68.4934402 36.0490484,68.3568033 L45.4140246,68.2179446 C48.5695661,68.1640674 51.6601194,68.1068576 54.7851108,68.0024359 C61.2200604,67.7958141 66.9845754,67.3436902 72.3713808,66.6310674 L72.3713808,65.654613 C66.9640235,66.2361533 61.1911767,66.5427533 54.752339,66.5849663 C51.6367902,66.6121826 48.5190197,66.5899652 45.4006937,66.5638598"
           id="Fill-11"
           fill="#B4B5B4" />
        <polyline
           id="Fill-12"
           fill="#B4B5B4"
           points="72.3713808 71.5294467 0 69.6942902 0 72.5009022 72.3713808 72.5009022 72.3713808 71.5294467" />
        <path
           d="M65.8547793,24.3669239 C63.1058311,26.5747772 60.9823255,28.143325 57.6173774,29.480812 C54.6873507,30.6450033 51.540141,31.1221217 47.9441235,31.6120152 C45.6300967,31.9363891 43.2116444,32.4157293 40.9015058,32.5695848 C39.9516773,32.6329043 39.0012933,32.6962239 38.0536865,32.7706522 L0,35.5433826 L0,38.3611033 L38.2075477,34.6569087 L43.1610979,34.1925652 C44.9985441,34.0187141 46.6293608,33.8159804 48.1474201,33.5715891 C51.8500851,32.9772739 55.0406203,32.069138 57.9001041,30.796637 C60.8673463,29.4880326 63.8695821,27.3451652 66.659634,24.9978978 C68.5581802,23.4038 70.3839618,21.3975696 72.3713808,19.2074902 L72.3713808,18.1977098 C69.9673703,20.6821696 67.9749522,22.6672935 65.8547793,24.3669239"
           id="Fill-13"
           fill="#B4B5B4" />
        <polygon
           id="Fill-15"
           fill="#174489"
           points="30.0812368 72.5009022 93.4864582 72.5009022 93.4864582 30.0873467 30.0812368 30.0873467" />
        <polyline
           id="Fill-16"
           fill="#FFF101"
           points="62.4709457 36.1177022 64.6772141 36.1177022 62.8992017 37.5029565 63.5901881 39.7002565 61.8188412 38.346662 60.0474943 39.7002565 60.7457016 37.5029565 58.9538028 36.1177022 61.1522948 36.1177022 61.8188412 33.9748348 62.4709457 36.1177022" />
        <polyline
           id="Fill-17"
           fill="#FFF101"
           points="62.5487094 64.402663 64.7577551 64.402663 62.9797427 65.7384837 63.6707291 67.8502467 61.8993822 66.548863 60.1280353 67.8502467 60.8262426 65.7384837 59.0304556 64.402663 61.2333913 64.402663 61.8993822 62.3408891 62.5487094 64.402663" />
        <polyline
           id="Fill-18"
           fill="#FFF101"
           points="69.5457797 62.529737 71.7553809 62.529737 69.976813 63.8616696 70.6683549 65.9773207 68.897008 64.6720489 67.125661 65.9773207 67.8233129 63.8616696 66.0280814 62.529737 68.2304616 62.529737 68.897008 60.4674076 69.5457797 62.529737" />
        <polyline
           id="Fill-19"
           fill="#FFF101"
           points="69.5457797 38.0045141 71.7553809 38.0045141 69.976813 39.3370022 70.6683549 41.4520978 68.897008 40.1490478 67.125661 41.4520978 67.8233129 39.3370022 66.0280814 38.0045141 68.2304616 38.0045141 68.897008 35.9421848 69.5457797 38.0045141" />
        <polyline
           id="Fill-20"
           fill="#FFF101"
           points="74.7403976 43.1983848 76.9461106 43.1983848 75.1680982 44.529762 75.8590846 46.6459685 74.0877377 45.3434739 72.3202789 46.6459685 73.0179308 44.529762 71.2221438 43.1983848 73.4211913 43.1983848 74.0877377 41.1366109 74.7403976 43.1983848" />
        <polyline
           id="Fill-21"
           fill="#FFF101"
           points="74.7403976 57.4058511 76.9461106 57.4058511 75.1680982 58.7422272 75.8590846 60.8567674 74.0877377 59.5514957 72.3202789 60.8567674 73.0179308 58.7422272 71.2221438 57.4058511 73.4211913 57.4058511 74.0877377 55.3435217 74.7403976 57.4058511" />
        <polyline
           id="Fill-22"
           fill="#FFF101"
           points="76.686713 50.1940859 78.8968696 50.1940859 77.1177463 51.5271293 77.8087326 53.6427804 76.0373857 52.3375087 74.2665943 53.6427804 74.9642461 51.5271293 73.1690146 50.1940859 75.3680621 50.1940859 76.0373857 48.1334228 76.686713 50.1940859" />
        <polyline
           id="Fill-23"
           fill="#FFF101"
           points="55.3377888 38.0217326 57.5435018 38.0217326 55.7654894 39.3564424 56.4564758 41.471538 54.6851289 40.1662663 52.913782 41.471538 53.6119893 39.3564424 51.819535 38.0217326 54.019138 38.0217326 54.6851289 35.9599587 55.3377888 38.0217326" />
        <polyline
           id="Fill-24"
           fill="#FFF101"
           points="50.2870339 43.2161587 52.496635 43.2161587 50.7180672 44.5486467 51.4057208 46.6637424 49.6377066 45.3606924 47.8669152 46.6637424 48.5629007 44.5486467 46.7687801 43.2161587 48.9717158 43.2161587 49.6377066 41.1538293 50.2870339 43.2161587" />
        <polyline
           id="Fill-25"
           fill="#FFF101"
           points="48.4123723 50.2113043 50.6203071 50.2113043 48.8417392 51.5449033 49.5327256 53.6599989 47.7613787 52.3586152 45.9900317 53.6599989 46.688239 51.5449033 44.8957848 50.2113043 47.0953878 50.2113043 47.7613787 48.1506413 48.4123723 50.2113043" />
        <polyline
           id="Fill-26"
           fill="#FFF101"
           points="50.2870339 57.4230696 52.496635 57.4230696 50.7180672 58.7594457 51.4057208 60.8739859 49.6377066 59.5703804 47.8669152 60.8739859 48.5629007 58.7594457 46.7687801 57.4230696 48.9717158 57.4230696 49.6377066 55.3640728 50.2870339 57.4230696" />
        <polyline
           id="Fill-27"
           fill="#FFF101"
           points="55.4111089 62.5469554 57.6168219 62.5469554 55.8388095 63.8799989 56.5264632 65.9945391 54.758449 64.6898228 52.9876575 65.9945391 53.6853094 63.8799989 51.8934106 62.5469554 54.0924581 62.5469554 54.758449 60.4846261 55.4111089 62.5469554" />
        <g
           id="Group-32"
           transform="translate(102.203774, 0.000000)">
          <mask
             id="mask-2"
             fill="white">
            <use
               xlink:href="#path-1"
               id="use109" />
          </mask>
          <g
             id="Clip-30" />
          <path
             d="M0.30550041,0.291603261 C0.30550041,0.291603261 13.5264473,20.878238 15.9437887,24.6629707 C18.3600192,28.446037 21.1234093,31.4398304 30.9049769,33.4732772 C40.6871001,35.5061685 44.9452203,36.4665152 44.9452203,36.4665152 L44.9452203,37.2008 C44.9452203,37.2008 38.7296756,35.901638 30.7322304,34.1509076 C22.7342296,32.4001772 19.4648198,31.8108609 15.8188112,26.8386087 C12.7849144,22.7000641 0.30550041,5.11388804 0.30550041,5.11388804 L0.30550041,0.291603261"
             id="Fill-29"
             fill="#B4B5B4"
             mask="url(#mask-2)" />
          <path
             d="M0.30550041,6.14533043 C0.30550041,6.14533043 13.9669233,25.7166304 15.7799294,28.1155533 C17.5929354,30.5139207 20.0358278,34.381413 30.8333232,36.6636946 C33.6217088,37.2524554 44.9813249,39.487525 44.9813249,39.487525 L44.9813249,40.1062793 C44.9813249,40.1062793 36.3501052,38.4427522 30.8333232,37.2824489 C25.3165413,36.1215902 19.5181435,35.0629315 15.8188112,30.3972793 C12.4588622,26.159312 0.279394011,10.5293772 0.279394011,10.5293772 L0.30550041,6.14533043"
             id="Fill-31"
             fill="#B4B5B4"
             mask="url(#mask-2)" />
        </g>
        <path
           d="M102.509274,12.0246076 C102.509274,12.0246076 115.382506,28.6565467 117.983703,31.9830457 C120.584345,35.3095446 124.170364,38.0561696 133.037097,39.7580217 C138.149507,40.739475 147.145106,42.3880054 147.145106,42.3880054 L147.145106,43.0067598 C147.145106,43.0067598 139.263751,41.5370793 133.037097,40.4151011 C126.810443,39.2936783 121.668593,38.2089141 117.983703,34.0714804 C114.750398,30.4422696 102.483168,16.1764826 102.483168,16.1764826 L102.509274,12.0246076"
           id="Fill-33"
           fill="#B4B5B4" />
        <path
           d="M102.483723,17.8005739 C102.483723,17.8005739 115.516371,32.8889598 118.022585,35.5800413 C121.925214,39.7707967 123.816539,41.2154826 133.037097,42.9678793 C136.726431,43.6699489 147.145106,45.4823326 147.145106,45.4823326 L147.145106,46.1399674 C147.145106,46.1399674 138.515552,44.5925261 133.037097,43.6260696 C127.559752,42.6590576 122.923367,42.298025 117.983703,37.5529457 C114.219382,33.9376207 102.509274,21.6947272 102.509274,21.6947272 L102.483723,17.8005739"
           id="Fill-34"
           fill="#B4B5B4" />
        <path
           d="M102.509274,23.8092674 C102.509274,23.8092674 114.543768,36.1704685 118.022585,39.7191413 C121.714141,43.4838783 126.443287,44.8763533 132.997659,46.0238815 C139.254863,47.1191989 147.145106,48.3833685 147.145106,48.3833685 L147.145106,49.0798837 C147.145106,49.0798837 139.735888,47.889587 132.997659,46.7592772 C126.390519,45.6500739 121.766909,45.0313196 117.983703,41.6142848 C114.595426,38.5543946 102.509274,27.4451435 102.509274,27.4451435 L102.509274,23.8092674"
           id="Fill-35"
           fill="#B4B5B4" />
        <path
           d="M102.509274,29.3791674 C102.509274,29.3791674 113.95443,39.7963467 118.022585,43.3550174 C121.766909,46.6304163 124.801361,47.6485283 133.037097,49.0798837 C141.273943,50.5112391 147.145106,51.4004902 147.145106,51.4004902 L147.145106,52.1353304 C147.145106,52.1353304 139.697006,50.9367022 132.997659,49.8919293 C126.298313,48.847712 122.029639,48.4350239 118.022585,45.2501609 C113.397864,41.573738 102.509274,32.7828717 102.509274,32.7828717 L102.509274,29.3791674"
           id="Fill-36"
           fill="#B4B5B4" />
        <path
           d="M102.483168,35.33565 C102.483168,35.33565 115.540255,45.4823326 117.983703,47.2619457 C120.426595,49.0410033 123.658234,51.116663 133.037097,52.4447076 C142.33764,53.7621989 147.105668,54.4170565 147.105668,54.4170565 L147.105668,55.1913326 C147.105668,55.1913326 138.673302,53.9915935 133.037097,53.2961891 C127.402003,52.5991185 123.080561,52.3041826 118.022585,49.0021228 C113.099585,45.7889326 102.509274,38.4810772 102.509274,38.4810772 L102.483168,35.33565"
           id="Fill-37"
           fill="#B4B5B4" />
        <path
           d="M102.483168,41.0344109 C102.483168,41.0344109 115.579137,49.5825522 118.062022,50.9367022 C120.545463,52.2897413 123.461603,54.4948174 133.037097,55.6940011 C142.613146,56.8931848 147.105668,57.4341783 147.105668,57.4341783 L147.105668,58.1690185 C147.105668,58.1690185 139.185431,57.3186478 132.997659,56.661013 C126.810443,56.0033783 122.594537,55.1135717 117.983703,52.6385543 C113.372313,50.1629815 102.509274,43.9482217 102.509274,43.9482217 L102.483168,41.0344109"
           id="Fill-38"
           fill="#B4B5B4" />
        <path
           d="M102.509274,46.7331717 C102.509274,46.7331717 114.09996,52.9123837 118.022585,54.8425196 C122.397906,56.9959402 126.181112,58.0268272 133.037097,58.8266533 C139.76977,59.6125935 147.145106,60.3740946 147.145106,60.3740946 L147.145106,61.0711652 C147.145106,61.0711652 140.325781,60.3546543 133.037097,59.6781348 C125.81229,59.0071696 123.238865,58.6983478 118.022585,56.4293967 C113.358427,54.4003935 102.483723,49.4409163 102.483723,49.4409163 L102.509274,46.7331717"
           id="Fill-39"
           fill="#B4B5B4" />
        <path
           d="M102.509274,52.5352435 C102.509274,52.5352435 111.625962,56.3621891 118.062022,58.8655337 C124.394212,61.3277761 129.22834,61.5349533 133.07709,61.9598609 C134.771228,62.1470424 147.105668,63.3912163 147.105668,63.3912163 L147.105668,64.0860652 C147.105668,64.0860652 139.736999,63.5073022 133.037097,62.9274283 C126.337751,62.3475543 123.448272,62.1014967 118.022585,60.3357696 C112.53302,58.5494913 102.483168,55.1135717 102.483168,55.1135717 L102.509274,52.5352435"
           id="Fill-40"
           fill="#B4B5B4" />
        <path
           d="M102.509274,58.4145207 C102.509274,58.4145207 111.757049,61.2250207 118.062022,62.8496674 C124.367551,64.4743141 130.160949,65.1319489 133.07709,65.3246848 C135.99323,65.519087 147.105668,66.4072272 147.105668,66.4072272 L147.105668,67.0659728 C147.105668,67.0659728 140.804028,66.6416207 133.037097,66.0989609 C126.758786,65.6601674 121.714141,65.1963793 118.022585,64.3965533 C113.931657,63.5111902 102.483723,60.8378826 102.483723,60.8378826 L102.509274,58.4145207"
           id="Fill-41"
           fill="#B4B5B4" />
        <path
           d="M102.483723,64.2165924 C102.483723,64.2165924 110.072353,65.4963141 118.062022,66.7943652 C124.052052,67.767487 132.170587,68.3812424 133.037097,68.4195674 C133.904718,68.4584478 147.145106,69.3482543 147.145106,69.3482543 L147.145106,70.0436587 C147.145106,70.0436587 138.67108,69.6143076 133.037097,69.3093739 C127.169267,68.9916652 121.336431,68.6428522 118.022585,68.3034815 C110.602258,67.5442022 102.483723,66.5371989 102.483723,66.5371989 L102.483723,64.2165924"
           id="Fill-42"
           fill="#B4B5B4" />
        <path
           d="M102.509274,70.2236196 C102.509274,70.2236196 114.437121,70.6629685 118.062022,70.7407293 C121.688034,70.8179348 147.145106,71.8232717 147.145106,71.8232717 L147.145106,72.519787 L102.509274,72.4936815 L102.509274,70.2236196"
           id="Fill-43"
           fill="#B4B5B4" />
      </g>
      <text
         xml:space="preserve"
         style="font-style:normal;font-weight:normal;font-size:40px;line-height:1.25;font-family:sans-serif;letter-spacing:0px;word-spacing:0px;fill:#004494;fill-opacity:1;stroke:none"
         x="161.76405"
         y="46.831165"
         id="text140"><tspan
           sodipodi:role="line"
           id="tspan138"
           x="161.76405"
           y="46.831165"
           style="font-style:normal;font-variant:normal;font-weight:500;font-stretch:normal;font-size:16px;font-family:'EC Square Sans Pro';-inkscape-font-specification:'EC Square Sans Pro, Medium';font-variant-ligatures:normal;font-variant-caps:normal;font-variant-numeric:normal;font-feature-settings:normal;text-align:start;writing-mode:lr-tb;text-anchor:start;fill:#004494;fill-opacity:1">Connecting Europe</tspan></text>
      <text
         xml:space="preserve"
         style="font-style:normal;font-weight:normal;font-size:40px;line-height:1.25;font-family:sans-serif;letter-spacing:0px;word-spacing:0px;fill:#004494;fill-opacity:1;stroke:none"
         x="161.69839"
         y="72.275238"
         id="text144"><tspan
           sodipodi:role="line"
           id="tspan142"
           x="161.69839"
           y="72.275238"
           style="font-style:normal;font-variant:normal;font-weight:normal;font-stretch:normal;font-size:26.66666667px;font-family:'EC Square Sans Pro';-inkscape-font-specification:'EC Square Sans Pro, Normal';fill:#004494;fill-opacity:1;text-anchor:start;text-align:start;writing-mode:lr;font-variant-ligatures:normal;font-variant-caps:normal;font-variant-numeric:normal;font-feature-settings:normal">eTranslation</tspan></text>
    </g>
  </g>
</svg>
